<?xml version="1.0" standalone="no"?>
<!DOCTYPE svg PUBLIC "-//W3C//DTD SVG 20010904//EN"
 "http://www.w3.org/TR/2001/REC-SVG-20010904/DTD/svg10.dtd">
<svg version="1.0" xmlns="http://www.w3.org/2000/svg"
 width="108.000000pt" height="110.000000pt" viewBox="0 0 108.000000 110.000000"
 preserveAspectRatio="xMidYMid meet">
<metadata>
Created by potrace 1.10, written by Peter Selinger 2001-2011
</metadata>
<g transform="translate(0.000000,110.000000) scale(0.050000,-0.050000)"
fill="#000000" stroke="none">
<path d="M910 2168 c-340 -84 -649 -247 -785 -412 -135 -164 -119 -770 27
-1060 71 -140 112 -159 57 -26 -17 41 -27 86 -22 99 5 14 -8 87 -29 162 -25
90 -37 194 -35 299 l2 160 16 -166 c9 -91 27 -217 41 -280 13 -63 26 -142 29
-176 6 -67 80 -199 139 -248 27 -22 22 -3 -19 77 -62 123 -56 156 11 59 25
-36 71 -96 102 -132 35 -41 56 -89 57 -130 l1 -64 30 55 c16 31 24 66 16 78
-8 12 -15 37 -16 55 -2 17 -24 72 -50 122 -39 73 -41 84 -12 60 35 -29 35 -27
0 39 -20 39 -27 72 -16 76 11 3 16 29 11 56 -15 79 26 56 47 -26 11 -41 30
-73 43 -70 13 2 33 -13 45 -35 17 -32 15 -37 -10 -27 -16 6 -30 2 -30 -10 0
-37 33 -42 78 -10 52 37 45 102 -29 247 -25 50 -51 122 -58 160 l-12 70 36
-80 c92 -207 155 -279 94 -108 -67 191 -127 598 -88 598 10 0 27 -38 39 -85
64 -251 137 -421 231 -533 75 -89 79 -68 10 60 -59 110 -168 417 -153 433 24
24 169 -304 147 -332 -21 -24 -18 -27 17 -15 27 8 52 2 68 -18 23 -27 29 -26
54 10 42 59 94 53 78 -10 -15 -58 4 -150 30 -150 10 0 18 16 19 35 1 29 6 28
32 -10 40 -57 59 -57 77 0 13 42 15 43 24 6 6 -22 0 -43 -12 -47 -12 -4 -17
-16 -11 -26 17 -27 -50 -47 -75 -22 -16 16 -8 19 26 12 42 -8 43 -7 8 9 -69
30 -107 1 -72 -55 34 -54 128 8 177 116 43 94 64 203 28 147 -33 -53 -107 71
-100 167 4 49 2 88 -5 88 -7 0 -24 43 -39 95 -47 173 -173 477 -191 460 -5 -5
27 -94 70 -197 134 -325 157 -463 28 -178 -39 88 -80 160 -90 160 -10 0 -14
-7 -9 -16 6 -9 33 -77 61 -151 l51 -135 -44 14 c-25 7 -56 28 -70 46 -22 28
-24 27 -13 -8 11 -39 11 -39 -20 -1 -36 43 -43 80 -12 61 11 -7 1 20 -22 60
-55 92 -67 80 -28 -29 16 -47 30 -89 30 -92 0 -3 -27 -15 -61 -26 -33 -12 -55
-13 -49 -3 14 22 -46 120 -73 120 -10 0 -8 -19 4 -42 15 -29 16 -38 2 -30 -12
8 -33 49 -46 93 -13 43 -32 79 -42 79 -16 0 -9 -37 20 -115 5 -14 4 -25 -2
-25 -24 0 -73 120 -73 179 0 34 -9 61 -21 61 -11 0 -19 -11 -16 -25 8 -45 -26
-235 -45 -246 -10 -6 -18 26 -18 71 0 55 -7 78 -22 69 -13 -8 -18 -42 -11 -82
6 -41 2 -67 -11 -67 -21 0 -14 -87 14 -170 11 -32 10 -34 -8 -10 -19 26 -21
26 -22 -3 0 -18 -13 -38 -28 -43 -38 -15 -51 44 -52 221 0 83 -9 145 -20 145
-23 0 -24 -143 -1 -300 11 -82 9 -120 -12 -149 -26 -38 -27 -37 -27 20 -1 48
-39 150 -40 105 -1 -40 50 -243 93 -373 59 -177 52 -220 -19 -113 -91 138
-137 301 -148 530 -10 226 -4 246 112 348 26 23 66 61 90 84 65 65 211 151
233 138 10 -7 19 -4 19 6 0 10 58 34 129 53 71 19 139 47 151 61 31 38 147 25
340 -39 274 -90 424 -227 423 -386 0 -8 13 -22 28 -31 33 -18 41 -174 9 -174
-10 0 16 -101 60 -224 43 -123 75 -228 71 -232 -16 -15 -119 161 -154 262
l-36 104 0 -84 c-1 -46 -10 -89 -21 -96 -12 -7 -20 15 -20 54 0 36 -17 129
-39 206 -21 77 -54 201 -73 276 -19 74 -43 141 -54 148 -12 7 -16 -3 -10 -26
80 -283 100 -384 107 -558 8 -214 -10 -185 -53 85 -11 69 -37 177 -59 240 -21
63 -34 88 -29 55 62 -384 75 -511 62 -596 -20 -128 -61 -97 -83 62 l-16 114
-15 -90 c-21 -129 -20 -361 2 -310 13 29 18 10 19 -70 l1 -110 57 100 c32 55
65 136 74 180 l17 80 12 -100 12 -100 16 155 c16 144 20 155 63 155 165 0 114
-278 -65 -353 -57 -24 -68 -37 -59 -73 61 -242 62 -289 3 -267 -47 18 -59 71
-35 161 29 106 19 113 -28 18 -43 -88 -376 -326 -457 -326 -69 0 -239 70 -342
142 -54 37 -88 50 -88 34 1 -34 227 -166 335 -195 160 -43 440 -5 603 82 59
31 123 57 141 57 52 0 57 14 40 106 -13 74 -12 79 12 44 87 -128 93 -128 80
-4 -8 77 -5 112 9 104 11 -7 20 -24 20 -37 0 -14 14 -43 31 -64 30 -37 31 -35
18 31 -50 255 -43 314 19 160 37 -94 60 -105 44 -20 -7 33 -17 89 -24 125
l-12 65 75 -70 75 -70 -66 98 c-40 60 -69 130 -73 180 l-8 82 59 -125 c68
-143 94 -164 50 -41 -34 99 -113 572 -99 595 14 22 -76 283 -121 351 -131 200
-613 379 -858 318z m155 -791 c34 5 53 -25 83 -137 9 -33 -4 -21 -40 36 -29
47 -57 81 -63 76 -5 -5 10 -36 33 -69 50 -71 52 -83 11 -83 -17 0 -47 40 -70
92 -46 107 -47 115 -14 95 14 -9 41 -13 60 -10z m773 -164 l-3 -83 -25 100
c-38 145 -38 195 0 123 17 -32 29 -95 28 -140z m-919 66 c70 -83 80 -106 60
-130 -27 -33 -23 -38 -114 127 -76 139 -61 139 54 3z m-419 -96 c0 -21 13 -74
28 -118 27 -76 27 -80 -10 -70 -23 6 -38 27 -38 55 0 25 -6 73 -12 108 -9 40
-5 62 10 62 12 0 22 -17 22 -37z m-60 -38 c-1 -43 -5 -48 -20 -25 -30 46 -25
-9 7 -87 23 -54 23 -76 2 -124 -14 -33 -27 -50 -28 -39 -2 11 -7 64 -12 118
-9 111 -28 148 -30 60 -2 -50 -4 -53 -19 -18 -25 58 -25 60 33 117 65 66 67
66 67 -2z"/>
<path d="M1617 971 c-18 -39 -16 -55 10 -81 18 -18 33 -24 33 -13 0 12 -9 26
-20 33 -33 20 -22 55 13 42 26 -10 28 -7 10 14 -12 15 -17 34 -9 41 7 7 6 13
-1 13 -8 0 -24 -22 -36 -49z"/>
<path d="M906 553 c-88 -32 -93 -41 -57 -111 75 -145 240 -71 186 83 -21 60
-34 63 -129 28z m91 -47 c33 -59 -12 -127 -69 -102 -61 28 -70 80 -19 110 55
33 66 32 88 -8z"/>
</g>
</svg>
